inDegrees=yes
name=ik_coleta1_trike_mov
DataType=double
version=3
OpenSimVersion=4.4-2022-07-23-0e9fedc
endheader
time	pelvis_tilt	pelvis_tx	pelvis_ty	hip_flexion_r	knee_angle_r	ankle_angle_r	hip_flexion_l	knee_angle_l	ankle_angle_l	lumbar_extension	gearToGround_coord_0	rightPedalToGear_coord_0	leftPedalToGear_coord_0
20.00052404403687	52.5	-0.7	0.0500000000000003	60.69148533315204	-62.60109785428823	-1.039076492892845e-12	80.38799999999991	-84.66000000000004	5.05043721578303e-13	2.071017320375504e-12	0	-114.0000000000003	-139.067795130823
20.00452995300293	52.5	-0.7	0.0500000000000003	61.18663149019579	-63.09550785835515	-1.039076492892845e-12	80.38799999999991	-84.66000000000004	5.05043721578303e-13	2.071017320375504e-12	0	-114.0000000000003	-139.067795130823
20.00951385498047	52.5	-0.7	0.0500000000000003	61.18655304691535	-63.85377634429182	-1.039076492892845e-12	80.38799999999991	-84.66000000000004	5.05043721578303e-13	2.071017320375504e-12	0	-114.0000000000003	-139.067795130823
20.0185227394104	52.5	-0.7	0.0500000000000003	61.58259022236763	-64.24971928356719	-1.039076492892845e-12	80.38799999999991	-84.66000000000004	5.05043721578303e-13	2.071017320375504e-12	0	-114.0000000000003	-139.067795130823
20.023521900177	52.5	-0.7	0.0500000000000003	61.58251496958225	-64.9770433022417	-1.039076492892845e-12	80.38799999999991	-84.66000000000004	5.05043721578303e-13	2.071017320375504e-12	0	-114.0000000000003	-139.067795130823
20.02852702140808	52.5	-0.7	0.0500000000000003	61.97322379466021	-65.36766171464822	-1.039076492892845e-12	80.38799999999991	-84.66000000000004	5.05043721578303e-13	2.071017320375504e-12	0	-114.0000000000003	-139.067795130823
20.03252601623535	52.5	-0.7	0.0500000000000003	61.9731519882811	-66.06155911374653	-1.039076492892845e-12	80.38799999999991	-84.66000000000004	5.05043721578303e-13	2.071017320375504e-12	0	-114.0000000000003	-139.067795130823
20.03752088546753	52.5	-0.7	0.0500000000000003	62.33840980772703	-66.42673065401739	-1.039076492892845e-12	80.38799999999991	-84.66000000000004	5.05043721578303e-13	2.071017320375504e-12	0	-114.0000000000003	-139.067795130823
20.04153895378113	52.5	-0.7	0.0500000000000003	62.33827941161084	-67.68611644496455	-1.039076492892845e-12	80.38799999999991	-84.66000000000004	5.05043721578303e-13	2.071017320375504e-12	0	-114.0000000000003	-139.067795130823
20.05553412437439	52.5	-0.7	0.0500000000000003	62.33819613762599	-69.74760913098166	-1.039076492892845e-12	80.38799999999991	-84.66000000000004	5.05043721578303e-13	2.071017320375504e-12	0	-114.0000000000003	-139.067795130823
20.06252217292786	52.5	-0.7	0.0500000000000003	62.33835569626324	-70.27037164910024	-1.039076492892845e-12	80.38799999999991	-84.66000000000004	5.05043721578303e-13	2.071017320375504e-12	0	-114.0000000000003	-139.067795130823
20.06953597068787	52.5	-0.7	0.0500000000000003	63.37430635943826	-71.30625731920577	-1.039076492892845e-12	80.38799999999991	-84.66000000000004	5.05043721578303e-13	2.071017320375504e-12	0	-114.0000000000003	-139.067795130823
20.07552313804626	52.5	-0.7	0.0500000000000003	63.92193439932744	-71.8538853579247	-1.039076492892845e-12	80.38799999999991	-84.66000000000004	5.05043721578303e-13	2.071017320375504e-12	0	-114.0000000000003	-139.067795130823
20.07952094078064	52.5	-0.7	0.0500000000000003	63.92188572127937	-72.32339045171916	-1.039076492892845e-12	80.38799999999991	-84.66000000000004	5.05043721578303e-13	2.071017320375504e-12	0	-114.0000000000003	-139.067795130823
20.08552384376526	52.5	-0.7	0.0500000000000003	65.98533305483839	-74.38677927400133	-1.039076492892845e-12	80.38799999999991	-84.66000000000004	5.05043721578303e-13	2.071017320375504e-12	0	-114.0000000000003	-139.067795130823
20.10352993011475	52.5	-0.7	0.0500000000000003	67.31794267385037	-75.71938888852689	-1.039076492892845e-12	80.38799999999991	-84.66000000000004	5.05043721578303e-13	2.071017320375504e-12	0	-114.0000000000003	-139.067795130823
20.11452889442444	52.5	-0.7	0.0500000000000003	67.31789899589084	-76.14076876499037	-1.039076492892845e-12	80.38799999999991	-84.66000000000004	5.05043721578303e-13	2.071017320375504e-12	0	-114.0000000000003	-139.067795130823
20.12051510810852	52.5	-0.7	0.0500000000000003	68.74758184705486	-77.57039911058806	-1.039076492892845e-12	80.38799999999991	-84.66000000000004	5.05043721578303e-13	2.071017320375504e-12	0	-114.0000000000003	-139.067795130823
20.13452005386353	52.5	-0.7	0.0500000000000003	68.74652815792582	-77.9270073411309	-1.039076492892845e-12	80.38799999999991	-84.66000000000004	5.05043721578303e-13	2.071017320375504e-12	0	-114.0000000000003	-139.067795130823
20.14352989196777	52.5	-0.7	0.0500000000000003	68.74676836899256	-78.21092109678298	-1.039076492892845e-12	80.38799999999991	-84.66000000000004	5.05043721578303e-13	2.071017320375504e-12	0	-114.0000000000003	-139.067795130823
20.15252614021301	52.5	-0.7	0.0500000000000003	68.74685921125376	-78.46203639716404	-1.039076492892845e-12	80.38799999999991	-84.66000000000004	5.05043721578303e-13	2.071017320375504e-12	0	-114.0000000000003	-139.067795130823
20.15756106376648	52.5	-0.7	0.0500000000000003	68.74685400652196	-78.7141084395268	-1.039076492892845e-12	80.38799999999991	-84.66000000000004	5.05043721578303e-13	2.071017320375504e-12	0	-114.0000000000003	-139.067795130823
20.16252112388611	52.5	-0.7	0.0500000000000003	69.81556603015379	-79.79044160945607	-1.039076492892845e-12	80.38799999999991	-84.66000000000004	5.05043721578303e-13	2.071017320375504e-12	0	-114.0000000000003	-139.067795130823
20.16654491424561	52.5	-0.7	0.0500000000000003	69.815507281873	-80.39035138156972	-1.039076492892845e-12	80.38799999999991	-84.66000000000004	5.05043721578303e-13	2.071017320375504e-12	0	-114.0000000000003	-139.067795130823
20.17152094841003	52.5	-0.7	0.0500000000000003	69.82282847477762	-80.39031398733152	-1.039076492892845e-12	80.38799999999991	-84.66000000000004	5.05043721578303e-13	2.071017320375504e-12	0	-114.0000000000003	-139.067795130823
20.17751979827881	52.5	-0.7	0.0500000000000003	69.83005688784364	-80.84927865268702	-1.039076492892845e-12	80.38799999999991	-84.66000000000004	5.05043721578303e-13	2.071017320375504e-12	0	-114.0000000000003	-139.067795130823
20.18151807785034	52.5	-0.7	0.0500000000000003	70.00167542921041	-81.02084686483791	-1.039076492892845e-12	80.38799999999991	-84.66000000000004	5.05043721578303e-13	2.071017320375504e-12	0	-114.0000000000003	-139.067795130823
20.19151473045349	52.5	-0.7	0.0500000000000003	70.00071543809551	-81.34526469205146	-1.039076492892845e-12	80.38799999999991	-84.66000000000004	5.05043721578303e-13	2.071017320375504e-12	0	-114.0000000000003	-139.067795130823
20.20051002502441	52.5	-0.7	0.0500000000000003	70.00115721536707	-81.52820867756668	-1.039076492892845e-12	80.38799999999991	-84.66000000000004	5.05043721578303e-13	2.071017320375504e-12	0	-114.0000000000003	-139.067795130823
20.20852494239807	52.5	-0.7	0.0500000000000003	72.14494474765327	-83.67748664283812	-1.039076492892845e-12	80.38799999999991	-84.66000000000004	5.05043721578303e-13	2.071017320375504e-12	0	-114.0000000000003	-139.067795130823
20.2145209312439	52.5	-0.7	0.0500000000000003	72.14502278148784	-82.93070087288534	-1.039076492892845e-12	80.38799999999991	-84.66000000000004	5.05043721578303e-13	2.071017320375504e-12	0	-114.0000000000003	-139.067795130823
20.22551703453064	52.5	-0.7	0.0500000000000003	72.14499541990916	-82.4473321625692	-1.039076492892845e-12	80.38799999999991	-84.66000000000004	5.05043721578303e-13	2.071017320375504e-12	0	-114.0000000000003	-139.067795130823
20.23151898384094	52.5	-0.7	0.0500000000000003	73.10070231625396	-83.40309927679068	-1.039076492892845e-12	80.38799999999991	-84.66000000000004	5.05043721578303e-13	2.071017320375504e-12	0	-114.0000000000003	-139.067795130823
20.23752188682556	52.5	-0.7	0.0500000000000003	73.10076295081038	-82.8181665509501	-1.039076492892845e-12	80.38799999999991	-84.66000000000004	5.05043721578303e-13	2.071017320375504e-12	0	-114.0000000000003	-139.067795130823
20.24151706695557	52.5	-0.7	0.0500000000000003	74.92716111999189	-84.64463765329016	-1.039076492892845e-12	80.38799999999991	-84.66000000000004	5.05043721578303e-13	2.071017320375504e-12	0	-114.0000000000003	-139.067795130823
20.24651694297791	52.5	-0.7	0.0500000000000003	74.92722193032033	-84.05762600613664	-1.039076492892845e-12	80.38799999999991	-84.66000000000004	5.05043721578303e-13	2.071017320375504e-12	0	-114.0000000000003	-139.067795130823
20.25051498413086	52.5	-0.7	0.0500000000000003	75.85813587161829	-84.98861309008633	-1.039076492892845e-12	80.38799999999991	-84.66000000000004	5.05043721578303e-13	2.071017320375504e-12	0	-114.0000000000003	-139.067795130823
20.25651717185974	52.5	-0.7	0.0500000000000003	75.85823393216221	-84.04164419895552	-1.039076492892845e-12	80.38799999999991	-84.66000000000004	5.05043721578303e-13	2.071017320375504e-12	0	-114.0000000000003	-139.067795130823
20.26752996444702	52.5	-0.7	0.0500000000000003	75.85821112968705	-83.31426421327188	-1.039076492892845e-12	80.38799999999991	-84.66000000000004	5.05043721578303e-13	2.071017320375504e-12	0	-114.0000000000003	-139.067795130823
20.27551412582397	52.5	-0.7	0.0500000000000003	75.85821789791328	-82.52136564767936	-1.039076492892845e-12	80.38799999999991	-84.66000000000004	5.05043721578303e-13	2.071017320375504e-12	0	-114.0000000000003	-139.067795130823
20.28151798248291	52.5	-0.7	0.0500000000000003	75.8582233748425	-81.6751969183309	-1.039076492892845e-12	80.38799999999991	-84.66000000000004	5.05043721578303e-13	2.071017320375504e-12	0	-114.0000000000003	-139.067795130823
20.28751492500305	52.5	-0.7	0.0500000000000003	77.65389607981143	-83.47097482913581	-1.039076492892845e-12	80.38799999999991	-84.66000000000004	5.05043721578303e-13	2.071017320375504e-12	0	-114.0000000000003	-139.067795130823
20.29751086235046	52.5	-0.7	0.0500000000000003	77.65398275396258	-82.63238013089517	-1.039076492892845e-12	80.38799999999991	-84.66000000000004	5.05043721578303e-13	2.071017320375504e-12	0	-114.0000000000003	-139.067795130823
20.30252909660339	52.5	-0.7	0.0500000000000003	80.9967309340735	-85.97523260400285	-1.039076492892845e-12	80.38799999999991	-84.66000000000004	5.05043721578303e-13	2.071017320375504e-12	0	-114.0000000000003	-139.067795130823
